<mxfile host="app.diagrams.net" modified="2023-10-21T19:36:08.288Z" agent="Mozilla/5.0 (Macintosh; Intel Mac OS X 10_15_7) AppleWebKit/537.36 (KHTML, like Gecko) Chrome/118.0.0.0 Safari/537.36" version="22.0.6" etag="4NWaB0OavWA_UYJj4bSE" type="github">
  <diagram name="Page-1" id="BLn8ALIilPdkz5z4A4q3">
    <mxGraphModel>
      <root>
        <mxCell id="0" />
        <mxCell id="1" parent="0" />
      </root>
    </mxGraphModel>
  </diagram>
</mxfile>
